<svg xmlns="http://www.w3.org/2000/svg" width="64" height="64" viewBox="0 0 64 64">
  <defs>
    <linearGradient id="g" x1="0" y1="0" x2="1" y2="1">
      <stop offset="0" stop-color="#667eea"/>
      <stop offset="1" stop-color="#764ba2"/>
    </linearGradient>
  </defs>

  <rect x="4" y="4" width="56" height="56" rx="14" fill="url(#g)"/>

  <rect x="22" y="14" width="20" height="36" rx="4" fill="#ffffff" opacity="0.95"/>
  <rect x="24.5" y="18" width="15" height="24" rx="2" fill="#667eea" opacity="0.25"/>
  <circle cx="32" cy="46" r="2" fill="#764ba2" opacity="0.9"/>

  <path d="M42.5 24c4 0 7.5 2.6 7.5 6s-3.5 6-7.5 6c-.8 0-1.6-.1-2.4-.3l-3.2 2.1.9-3.1C36.3 33.7 35 31.9 35 30c0-3.4 3.5-6 7.5-6z"
        fill="#ffffff" opacity="0.95"/>
  <circle cx="40" cy="30" r="1.3" fill="#764ba2"/>
  <circle cx="43" cy="30" r="1.3" fill="#764ba2"/>
  <circle cx="46" cy="30" r="1.3" fill="#764ba2"/>
</svg>
